<mxfile host="app.diagrams.net" modified="2021-10-15T07:21:26.109Z" agent="5.0 (Macintosh; Intel Mac OS X 10_15_7) AppleWebKit/605.1.15 (KHTML, like Gecko) Version/15.0 Safari/605.1.15" etag="npQ5EdE2ecqS3aAqKsxg" version="15.5.2" type="github">
  <diagram id="NbojzTl_xMOe5sW5K1Y1" name="Page-1">
    <mxGraphModel dx="566" dy="360" grid="1" gridSize="10" guides="1" tooltips="1" connect="1" arrows="1" fold="1" page="1" pageScale="1" pageWidth="827" pageHeight="1169" math="0" shadow="0">
      <root>
        <mxCell id="0" />
        <mxCell id="1" parent="0" />
        <mxCell id="tPcZfzj9pCGMTAA5cY7Q-6" style="rounded=0;orthogonalLoop=1;jettySize=auto;html=1;exitX=1;exitY=1;exitDx=0;exitDy=0;entryX=0.5;entryY=0;entryDx=0;entryDy=0;" edge="1" parent="1" source="tPcZfzj9pCGMTAA5cY7Q-1" target="tPcZfzj9pCGMTAA5cY7Q-5">
          <mxGeometry relative="1" as="geometry" />
        </mxCell>
        <mxCell id="tPcZfzj9pCGMTAA5cY7Q-1" value="1" style="ellipse;whiteSpace=wrap;html=1;aspect=fixed;fillColor=#ffe6cc;strokeColor=#d79b00;" vertex="1" parent="1">
          <mxGeometry x="323" y="50" width="30" height="30" as="geometry" />
        </mxCell>
        <mxCell id="tPcZfzj9pCGMTAA5cY7Q-8" style="edgeStyle=none;rounded=0;orthogonalLoop=1;jettySize=auto;html=1;exitX=0.5;exitY=1;exitDx=0;exitDy=0;entryX=0.5;entryY=0;entryDx=0;entryDy=0;" edge="1" parent="1" source="tPcZfzj9pCGMTAA5cY7Q-3" target="tPcZfzj9pCGMTAA5cY7Q-7">
          <mxGeometry relative="1" as="geometry" />
        </mxCell>
        <mxCell id="tPcZfzj9pCGMTAA5cY7Q-3" value="1&lt;span style=&quot;white-space: pre&quot;&gt;	2&lt;/span&gt;" style="ellipse;whiteSpace=wrap;html=1;fillColor=#ffe6cc;strokeColor=#d79b00;" vertex="1" parent="1">
          <mxGeometry x="263" y="110" width="70" height="30" as="geometry" />
        </mxCell>
        <mxCell id="tPcZfzj9pCGMTAA5cY7Q-4" value="" style="endArrow=classic;html=1;rounded=0;exitX=0;exitY=1;exitDx=0;exitDy=0;entryX=0.5;entryY=0;entryDx=0;entryDy=0;" edge="1" parent="1" source="tPcZfzj9pCGMTAA5cY7Q-1" target="tPcZfzj9pCGMTAA5cY7Q-3">
          <mxGeometry width="50" height="50" relative="1" as="geometry">
            <mxPoint x="353" y="260" as="sourcePoint" />
            <mxPoint x="403" y="210" as="targetPoint" />
          </mxGeometry>
        </mxCell>
        <mxCell id="tPcZfzj9pCGMTAA5cY7Q-5" value="1&lt;span style=&quot;white-space: pre&quot;&gt;	2&lt;/span&gt;" style="ellipse;whiteSpace=wrap;html=1;fillColor=#ffe6cc;strokeColor=#d79b00;" vertex="1" parent="1">
          <mxGeometry x="343" y="110" width="70" height="30" as="geometry" />
        </mxCell>
        <mxCell id="tPcZfzj9pCGMTAA5cY7Q-9" style="edgeStyle=none;rounded=0;orthogonalLoop=1;jettySize=auto;html=1;exitX=0;exitY=1;exitDx=0;exitDy=0;" edge="1" parent="1" source="tPcZfzj9pCGMTAA5cY7Q-7">
          <mxGeometry relative="1" as="geometry">
            <mxPoint x="233.0000000000001" y="230" as="targetPoint" />
          </mxGeometry>
        </mxCell>
        <mxCell id="tPcZfzj9pCGMTAA5cY7Q-10" style="edgeStyle=none;rounded=0;orthogonalLoop=1;jettySize=auto;html=1;exitX=0.5;exitY=1;exitDx=0;exitDy=0;" edge="1" parent="1" source="tPcZfzj9pCGMTAA5cY7Q-7">
          <mxGeometry relative="1" as="geometry">
            <mxPoint x="297.68965517241384" y="240" as="targetPoint" />
          </mxGeometry>
        </mxCell>
        <mxCell id="tPcZfzj9pCGMTAA5cY7Q-11" style="edgeStyle=none;rounded=0;orthogonalLoop=1;jettySize=auto;html=1;exitX=1;exitY=1;exitDx=0;exitDy=0;" edge="1" parent="1" source="tPcZfzj9pCGMTAA5cY7Q-7">
          <mxGeometry relative="1" as="geometry">
            <mxPoint x="363.0000000000001" y="240" as="targetPoint" />
          </mxGeometry>
        </mxCell>
        <mxCell id="tPcZfzj9pCGMTAA5cY7Q-7" value="1&lt;span style=&quot;white-space: pre&quot;&gt;	2&lt;span style=&quot;white-space: pre&quot;&gt;	3&lt;/span&gt;&lt;/span&gt;" style="ellipse;whiteSpace=wrap;html=1;fillColor=#ffe6cc;strokeColor=#d79b00;" vertex="1" parent="1">
          <mxGeometry x="253" y="170" width="90" height="30" as="geometry" />
        </mxCell>
      </root>
    </mxGraphModel>
  </diagram>
</mxfile>
